Coordinates
version=1
nRows=23
nColumns=23
inDegrees=yes

Units are S.I. units (second, meters, Newtons, ...)
If the header above contains a line with 'inDegrees', this indicates whether rotational values are in degrees (yes) or radians (no).

endheader
time	pelvis_tilt	pelvis_list	pelvis_rotation	pelvis_tx	pelvis_ty	pelvis_tz	hip_flexion_r	hip_adduction_r	hip_rotation_r	knee_angle_r	knee_angle_r_beta	ankle_angle_r	subtalar_angle_r	mtp_angle_r	hip_flexion_l	hip_adduction_l	hip_rotation_l	knee_angle_l	knee_angle_l_beta	ankle_angle_l	subtalar_angle_l	mtp_angle_l
     22.50000000	    -15.50049001	      5.81614880	      4.10474411	      2.21813168	      0.95875768	      1.03182417	     67.50450752	      1.80873621	      8.57846702	    120.86537619	      2.10949877	      9.50425162	    -15.14446113	      0.00000000	     -0.77723943	      8.01025108	      0.06745383	     25.01062762	      0.43651780	      9.28979005	      5.55331617	      0.00000000
     22.50666667	    -16.25825582	      5.20791683	      3.10977592	      2.22050557	      0.96148010	      1.03308173	     69.60500864	      3.21216389	      8.24536755	    117.71370614	      2.05449175	     10.08120915	    -15.56544178	      0.00000000	     -2.40966346	      7.27158858	     -1.41761462	     22.72981847	      0.39671017	      4.90230686	      5.44088268	      0.00000000
     22.51333333	    -16.33059317	      4.22594956	      2.29036167	      2.22348101	      0.96558389	      1.03401262	     70.57000350	      4.49865609	      7.36549228	    114.20085141	      1.99318087	     10.58485288	    -16.46547181	      0.00000000	     -4.75052355	      6.19940651	     -2.64623125	     20.37867689	      0.35567501	      0.13812319	      4.75072337	      0.00000000
     22.52000000	    -16.69713427	      3.43902697	      1.49743792	      2.22615930	      0.96904635	      1.03485492	     71.72424363	      5.63361491	      6.70018189	    110.58686555	      1.93010491	     11.05951514	    -17.34330654	      0.00000000	     -6.44698379	      5.34331192	     -4.38897426	     18.61140007	      0.32483021	     -4.48938846	      4.36916842	      0.00000000
     22.52666667	    -17.36281424	      3.07350239	      0.70146982	      2.22849759	      0.97165832	      1.03565182	     73.09522632	      6.50788491	      6.44873447	    106.94897912	      1.86661182	     11.46098799	    -18.33104575	      0.00000000	     -7.50255522	      4.90959212	     -6.62033781	     17.44594713	      0.30448922	     -8.86891347	      4.25112175	      0.00000000
     22.53333333	    -17.59678752	      2.44764690	      0.07304165	      2.23112968	      0.97509233	      1.03623363	     73.68998020	      7.25781074	      5.85597346	    103.02679681	      1.79815682	     11.81270664	    -19.61195876	      0.00000000	     -8.80935530	      4.18386958	     -8.82349337	     16.66591658	      0.29087512	    -12.97857060	      4.03361045	      0.00000000
     22.54000000	    -18.19942606	      2.29069168	     -0.55045815	      2.23334492	      0.97752470	      1.03684280	     74.58409993	      7.74150656	      5.68829349	     99.10701381	      1.72974370	     12.29579724	    -20.55414786	      0.00000000	     -9.40801425	      3.91046471	    -11.18607972	     16.51763993	      0.28828720	    -16.50983983	      3.68070829	      0.00000000
     22.54666667	    -18.03487222	      1.66674166	     -0.97751375	      2.23594124	      0.98121739	      1.03733302	     74.30832826	      8.20300609	      5.05067876	     94.86171524	      1.65564927	     12.66406641	    -22.16084892	      0.00000000	    -10.63693233	      3.04719682	    -13.55435716	     16.79467367	      0.29312235	    -19.39092996	      3.53269904	      0.00000000
     22.55333333	    -18.05839505	      1.28450223	     -1.35081430	      2.23824993	      0.98422499	      1.03790033	     74.08535159	      8.48775636	      4.62476611	     90.55869931	      1.58054747	     13.09685897	    -23.40772466	      0.00000000	    -11.45096339	      2.40656762	    -15.58721311	     17.55944155	      0.30647007	    -21.48777737	      3.05077554	      0.00000000
     22.56000000	    -17.86516500	      0.84700682	     -1.60809008	      2.24047077	      0.98724951	      1.03849993	     73.42333821	      8.65711863	      4.11444623	     86.11768584	      1.50303716	     13.59897593	    -24.41263946	      0.00000000	    -12.31738589	      1.66411993	    -17.18301947	     18.74647730	      0.32718775	    -22.76220225	      2.37025418	      0.00000000
     22.56666667	    -17.48489760	      0.37622695	     -1.79191535	      2.24256030	      0.99021198	      1.03919994	     72.35694023	      8.77579878	      3.58193240	     81.54851481	      1.42329008	     14.14721454	    -25.08753690	      0.00000000	    -13.25281407	      0.90240054	    -18.16746402	     20.22889197	      0.35306077	    -23.27129476	      1.51587062	      0.00000000
     22.57333333	    -16.96917626	     -0.05968959	     -1.89498267	      2.24444592	      0.99293236	      1.03992587	     70.96702049	      8.81306143	      3.09044733	     76.89997398	      1.34215774	     14.70097793	    -25.41587001	      0.00000000	    -14.17198361	      0.20675724	    -18.47029533	     22.04020537	      0.38467415	    -23.14830719	      0.32884315	      0.00000000
     22.58000000	    -16.41768058	     -0.38667303	     -1.92284837	      2.24603066	      0.99528239	      1.04067643	     69.37489216	      8.75078908	      2.71290660	     72.19370878	      1.26001792	     15.21761484	    -25.33293450	      0.00000000	    -14.94179709	     -0.29557105	    -17.95132993	     24.15219439	      0.42153531	    -22.53594271	     -1.18311142	      0.00000000
     22.58666667	    -15.83231617	     -0.60340211	     -1.89364786	      2.24732638	      0.99724345	      1.04131931	     67.59720918	      8.58705437	      2.44744236	     67.45927718	      1.17738650	     15.72117446	    -24.75626022	      0.00000000	    -15.53033837	     -0.58211644	    -16.73431495	     26.60298450	      0.46430967	    -21.63867669	     -3.04647291	      0.00000000
     22.59333333	    -15.38211725	     -0.58971789	     -1.83329534	      2.24823103	      0.99851153	      1.04184266	     65.85293668	      8.26955702	      2.37594206	     62.76728010	      1.09549570	     16.20191665	    -23.58426422	      0.00000000	    -15.70879058	     -0.52625422	    -14.94704387	     29.46722099	      0.51430003	    -20.61915736	     -5.11834984	      0.00000000
     22.60000000	    -14.92035669	     -0.44333145	     -1.76790051	      2.24884816	      0.99935017	      1.04215858	     63.99502250	      7.87221315	      2.45863374	     58.15708118	      1.01503255	     16.75743773	    -21.76022322	      0.00000000	    -15.67626916	     -0.18628517	    -12.77825834	     32.66201957	      0.57005978	    -19.65916889	     -7.36484639	      0.00000000
     22.60666667	    -14.36773505	     -0.15436063	     -1.70381894	      2.24928079	      0.99986350	      1.04211624	     61.97627003	      7.31601152	      2.57106796	     53.71776189	      0.93755181	     17.50885526	    -18.94716639	      0.00000000	    -15.55828713	      0.49611534	    -10.32640970	     36.10377059	      0.63012967	    -18.98355304	     -9.79145108	      0.00000000
     22.61333333	    -14.00524908	      0.24174245	     -1.64590933	      2.24946322	      0.99957774	      1.04180648	     60.13197114	      6.69876447	      2.80385892	     49.49888514	      0.86391852	     18.18811139	    -15.69578734	      0.00000000	    -14.99389209	      1.37483759	     -7.96177366	     39.97966995	      0.69777687	    -18.46046740	    -11.98032959	      0.00000000
     22.62000000	    -13.70895141	      0.64173963	     -1.63894661	      2.24952064	      0.99870488	      1.04129098	     58.33623051	      6.13009414	      3.13062432	     45.53351448	      0.79470975	     18.79239107	    -12.13117146	      0.00000000	    -14.18597668	      2.34594593	     -5.86436914	     44.15452075	      0.77064177	    -18.21910462	    -13.89933244	      0.00000000
     22.62666667	    -13.37961177	      1.06176033	     -1.98402500	      2.24933227	      0.99718445	      1.04119626	     56.52367223	      6.01435951	      4.10278042	     41.87974544	      0.73093945	     19.03008698	     -9.07579568	      0.00000000	    -13.28470064	      3.40772191	     -4.48357267	     48.53779489	      0.84714433	    -18.00404042	    -15.25990449	      0.00000000
     22.63333333	    -12.85005839	      1.27187043	     -1.90046501	      2.24969313	      0.99579267	      1.03987299	     54.57526506	      5.24711499	      3.72290933	     38.80238603	      0.67722939	     19.84766831	     -4.03298148	      0.00000000	    -12.52830321	      4.28859566	     -2.90212066	     52.95689577	      0.92427219	    -18.45469702	    -16.71117680	      0.00000000
     22.64000000	    -12.49087581	      1.48554702	     -2.38535156	      2.24949616	      0.99346413	      1.03968161	     52.80579197	      5.40421462	      4.84839545	     35.97961924	      0.62796282	     19.68882529	     -1.52425850	      0.00000000	    -11.43459960	      5.11862634	     -2.37826685	     57.57427099	      1.00486059	    -18.81290141	    -17.49462061	      0.00000000
     22.64666667	    -12.10127904	      1.41672731	     -2.86280725	      2.24941768	      0.99080017	      1.03935460	     51.09201032	      5.67087144	      5.59111422	     33.70845924	      0.58832360	     19.32464055	      0.95515031	      0.00000000	    -10.28013571	      5.62655100	     -2.11921612	     62.27928162	      1.08697852	    -19.38610718	    -18.16683390	      0.00000000
